<svg width="360" height="360" viewBox="0 0 360 360" fill="none" xmlns="http://www.w3.org/2000/svg">
<path d="M145.486 241.489L131.858 249.962C130.999 250.495 130.442 251.402 130.356 252.408L126.928 291.579C126.774 293.344 128.08 294.901 129.845 295.055L252.951 305.825C254.718 305.979 256.275 304.674 256.429 302.907L259.855 263.737C259.943 262.731 259.554 261.742 258.801 261.068L246.806 250.317C245.764 249.383 244.238 249.232 243.033 249.943L229.244 258.078C228.04 258.789 226.512 258.637 225.471 257.703L214.074 247.489C213.012 246.536 211.449 246.4 210.237 247.152L197.241 255.233C196.053 255.973 194.522 255.856 193.46 254.947L181.293 244.541C180.229 243.633 178.7 243.516 177.512 244.255L164.514 252.336C163.304 253.089 161.741 252.952 160.678 252.001L149.324 241.824C148.261 240.872 146.698 240.734 145.486 241.489Z" fill="white"/>
<path d="M253.232 302.628L252.951 305.825L129.845 295.055L130.126 291.858L253.232 302.628ZM256.658 263.458L244.663 252.707L230.874 260.842C228.616 262.174 225.792 261.991 223.731 260.425L223.328 260.092L211.932 249.879L198.935 257.96C196.708 259.345 193.88 259.226 191.783 257.708L191.373 257.385L179.207 246.981L166.21 255.061C163.939 256.473 161.049 256.321 158.945 254.727L158.534 254.39L147.181 244.214L133.553 252.688L129.845 295.055L129.521 295.008C127.923 294.705 126.783 293.233 126.928 291.577L130.356 252.407C130.433 251.527 130.868 250.723 131.55 250.179L131.858 249.962L145.486 241.489C146.698 240.734 148.263 240.872 149.324 241.824L160.677 251.999C161.673 252.891 163.11 253.068 164.283 252.466L164.516 252.334L177.512 244.254C178.7 243.516 180.231 243.631 181.293 244.541L193.46 254.947C194.456 255.799 195.862 255.953 197.013 255.361L197.241 255.234L210.237 247.154C211.449 246.4 213.012 246.536 214.074 247.489L225.472 257.704C226.448 258.579 227.851 258.767 229.014 258.2L229.244 258.078L243.033 249.942C244.238 249.232 245.764 249.383 246.806 250.317L258.801 261.068C259.554 261.742 259.943 262.731 259.855 263.737L256.429 302.908C256.275 304.673 254.718 305.979 252.951 305.825L256.658 263.458Z" fill="#AAAAAA"/>
<g filter="url(#filter0_d_1402_31510)">
<path d="M130.454 127.219C130.454 125.446 131.89 124.009 133.663 124.009H236.617L260.449 147.731V242.531C260.449 245.22 257.342 246.717 255.24 245.041L245.2 237.047C244.614 236.58 243.786 236.58 243.2 237.047L228.95 248.394C228.364 248.859 227.536 248.859 226.95 248.394L212.701 237.047C212.115 236.58 211.287 236.58 210.701 237.047L196.451 248.394C195.865 248.859 195.037 248.859 194.452 248.394L180.202 237.047C179.616 236.58 178.788 236.58 178.202 237.047L163.952 248.394C163.367 248.859 162.538 248.859 161.953 248.394L147.703 237.047C147.117 236.58 146.289 236.58 145.703 237.047L135.663 245.041C133.561 246.717 130.454 245.22 130.454 242.531V127.219Z" fill="white"/>
</g>
<g filter="url(#filter1_d_1402_31510)">
<path d="M130.454 127.219C130.454 125.557 131.717 124.191 133.336 124.026L133.663 124.009H236.617L260.449 147.731V242.531L260.439 242.78C260.261 245.228 257.466 246.576 255.44 245.191L255.24 245.041L245.2 237.047C244.614 236.58 243.786 236.58 243.2 237.047L228.95 248.394L228.719 248.548C228.241 248.81 227.66 248.81 227.181 248.548L226.95 248.394L212.701 237.047C212.115 236.58 211.287 236.58 210.701 237.047L196.451 248.394L196.22 248.548C195.742 248.81 195.161 248.81 194.683 248.548L194.452 248.394L180.202 237.047C179.616 236.58 178.788 236.58 178.202 237.047L163.952 248.394L163.721 248.548C163.243 248.81 162.662 248.81 162.184 248.548L161.953 248.394L147.703 237.047C147.117 236.58 146.289 236.58 145.703 237.047L135.663 245.041L135.462 245.191C133.437 246.576 130.641 245.228 130.463 242.78L130.454 242.531V127.219ZM133.663 242.531L143.704 234.536L144.042 234.29C145.652 233.22 147.754 233.22 149.364 234.29L149.703 234.536L162.952 245.085L176.202 234.536L176.541 234.29C178.151 233.22 180.253 233.22 181.863 234.29L182.201 234.536L195.451 245.085L208.701 234.536L209.04 234.29C210.65 233.22 212.752 233.22 214.362 234.29L214.7 234.536L227.95 245.085L241.2 234.536L241.539 234.29C243.148 233.22 245.251 233.22 246.861 234.29L247.199 234.536L257.239 242.531V149.065L235.291 127.219H133.663V242.531Z" fill="#AAAAAA"/>
</g>
<path d="M194.649 194.625C194.649 196.398 193.213 197.835 191.439 197.835C189.666 197.835 188.229 196.398 188.229 194.625C188.229 192.851 189.666 191.415 191.439 191.415C193.213 191.415 194.649 192.851 194.649 194.625Z" fill="#AAAAAA"/>
<path d="M175.289 169.683C175.737 168.985 176.639 168.751 177.363 169.118L177.506 169.202L185.193 174.143L185.376 174.27C187.156 175.636 186.22 178.576 183.893 178.576H173.786C172.9 178.576 172.181 177.857 172.181 176.971C172.181 176.085 172.9 175.366 173.786 175.366H181.16L175.771 171.901L175.636 171.805C175 171.298 174.84 170.381 175.289 169.683Z" fill="#AAAAAA"/>
<path d="M215.614 169.683C215.166 168.985 214.264 168.751 213.541 169.118L213.398 169.202L205.71 174.143L205.527 174.27C203.748 175.636 204.683 178.576 207.01 178.576H217.118C218.004 178.576 218.723 177.857 218.723 176.971C218.723 176.085 218.004 175.366 217.118 175.366H209.743L215.133 171.901L215.267 171.805C215.903 171.298 216.063 170.381 215.614 169.683Z" fill="#AAAAAA"/>
<path d="M130.229 196.601C130.911 196.033 131.922 196.125 132.49 196.807C133.057 197.487 132.964 198.5 132.283 199.066C124.78 205.313 120.186 211.029 118.269 215.549C117.314 217.8 117.075 219.635 117.342 221.044C117.597 222.397 118.343 223.499 119.698 224.332C122.607 226.12 126.913 226.232 131.428 225.422C135.316 224.722 139.08 223.39 141.672 222.235L142.707 221.751L142.858 221.687C143.622 221.406 144.488 221.743 144.853 222.491C145.217 223.239 144.947 224.13 144.256 224.558L144.113 224.637L142.994 225.159C140.2 226.406 136.183 227.828 131.996 228.58C127.281 229.428 121.97 229.497 118.017 227.067C115.939 225.791 114.622 223.936 114.188 221.641C113.765 219.404 114.208 216.903 115.314 214.295C117.52 209.095 122.558 202.987 130.229 196.601Z" fill="#AAAAAA"/>
<path d="M142.657 222.015C143.092 221.308 143.988 221.056 144.721 221.41L144.866 221.489L145.034 221.585C145.925 222.046 147.536 222.29 149.444 221.503C150.263 221.166 151.2 221.556 151.539 222.375C151.876 223.193 151.487 224.132 150.667 224.471C147.976 225.581 145.355 225.378 143.535 224.424L143.184 224.224L143.047 224.131C142.402 223.636 142.222 222.723 142.657 222.015Z" fill="#AAAAAA"/>
<path d="M260.672 197.403C259.992 196.836 258.981 196.929 258.414 197.611C257.846 198.292 257.939 199.303 258.621 199.87C266.134 206.124 270.563 211.633 272.325 215.934C273.2 218.067 273.372 219.785 273.067 221.11C272.773 222.389 271.998 223.476 270.603 224.333C267.694 226.121 263.389 226.233 258.873 225.421C254.985 224.721 251.221 223.389 248.629 222.234L247.594 221.752L247.443 221.688C246.679 221.407 245.811 221.746 245.448 222.492C245.084 223.24 245.354 224.131 246.045 224.559L246.188 224.638L247.308 225.159C250.102 226.406 254.12 227.828 258.307 228.581C263.02 229.428 268.331 229.497 272.284 227.067C274.322 225.816 275.686 224.044 276.195 221.829C276.694 219.658 276.331 217.239 275.296 214.715C273.237 209.695 268.334 203.781 260.672 197.403Z" fill="#AAAAAA"/>
<path d="M247.644 222.015C247.209 221.308 246.314 221.056 245.58 221.41L245.436 221.489L245.267 221.585C244.377 222.046 242.765 222.29 240.857 221.503C240.039 221.166 239.101 221.556 238.764 222.375C238.426 223.193 238.816 224.132 239.634 224.471C242.326 225.581 244.948 225.378 246.766 224.424L247.118 224.224L247.254 224.131C247.899 223.636 248.079 222.723 247.644 222.015Z" fill="#AAAAAA"/>
<path d="M91.4662 249.661L91.5769 249.783C92.0911 250.414 92.0537 251.343 91.4662 251.93C90.8786 252.518 89.9488 252.555 89.3184 252.041L89.1966 251.93L85.9871 248.721C85.3604 248.095 85.3604 247.079 85.9871 246.451C86.6138 245.825 87.63 245.825 88.2567 246.451L91.4662 249.661Z" fill="#FF6F3D"/>
<path d="M95.6169 258.351L95.5061 258.229C94.9919 257.598 95.0293 256.669 95.6169 256.08C96.2044 255.493 97.1343 255.456 97.7647 255.969L97.8865 256.08L101.096 259.29C101.723 259.917 101.723 260.933 101.096 261.559C100.469 262.187 99.453 262.187 98.8263 261.559L95.6169 258.351Z" fill="#FF6F3D"/>
<path d="M97.8865 251.93L97.7647 252.041C97.1343 252.555 96.2044 252.518 95.6169 251.93C95.0293 251.343 94.9919 250.412 95.5061 249.783L95.6169 249.661L98.8263 246.451C99.453 245.824 100.469 245.824 101.096 246.451C101.723 247.077 101.723 248.095 101.096 248.721L97.8865 251.93Z" fill="#FF6F3D"/>
<path d="M89.1966 256.08L89.3184 255.969C89.9488 255.456 90.8786 255.493 91.4662 256.08C92.0537 256.667 92.0911 257.598 91.5769 258.227L91.4662 258.349L88.2567 261.559C87.63 262.187 86.6138 262.187 85.9871 261.559C85.3604 260.933 85.3604 259.916 85.9871 259.29L89.1966 256.08Z" fill="#FF6F3D"/>
<path d="M174.92 58.6795L175.031 58.8014C175.544 59.4318 175.508 60.3616 174.92 60.9491C174.333 61.5368 173.402 61.5742 172.773 61.06L172.651 60.9491L169.441 57.7398C168.814 57.1129 168.814 56.0969 169.441 55.47C170.067 54.8433 171.084 54.8433 171.71 55.47L174.92 58.6795Z" fill="#FF6F3D"/>
<path d="M179.071 67.3694L178.96 67.2475C178.447 66.6171 178.484 65.6874 179.071 65.0997C179.658 64.5121 180.589 64.4747 181.218 64.9889L181.34 65.0997L184.55 68.3091C185.177 68.936 185.177 69.952 184.55 70.5787C183.924 71.2056 182.907 71.2056 182.281 70.5787L179.071 67.3694Z" fill="#FF6F3D"/>
<path d="M181.34 60.9491L181.218 61.0598C180.589 61.574 179.658 61.5366 179.071 60.9491C178.484 60.3616 178.447 59.4317 178.96 58.8013L179.071 58.6795L182.281 55.47C182.907 54.8433 183.924 54.8433 184.55 55.47C185.177 56.0967 185.177 57.1129 184.55 57.7397L181.34 60.9491Z" fill="#FF6F3D"/>
<path d="M172.651 65.0997L172.773 64.9889C173.402 64.4747 174.333 64.5121 174.92 65.0997C175.508 65.6872 175.544 66.6171 175.031 67.2475L174.92 67.3693L171.71 70.5787C171.084 71.2054 170.067 71.2054 169.441 70.5787C168.814 69.952 168.814 68.9358 169.441 68.3091L172.651 65.0997Z" fill="#FF6F3D"/>
<path d="M52.9489 162.997L53.0596 163.119C53.5738 163.75 53.5364 164.679 52.9489 165.266C52.3613 165.854 51.4314 165.89 50.801 165.377L50.6792 165.266L47.4698 162.056C46.8431 161.43 46.8431 160.415 47.4698 159.787C48.0965 159.161 49.1127 159.161 49.7394 159.787L52.9489 162.997Z" fill="#FF6F3D"/>
<path d="M57.1 171.688L56.9893 171.566C56.4751 170.935 56.5125 170.006 57.1 169.417C57.6876 168.83 58.6175 168.793 59.2478 169.306L59.3697 169.417L62.5791 172.627C63.2058 173.254 63.2058 174.27 62.5791 174.896C61.9524 175.524 60.9362 175.524 60.3095 174.896L57.1 171.688Z" fill="#FF6F3D"/>
<path d="M59.3697 165.265L59.2478 165.376C58.6175 165.89 57.6876 165.853 57.1 165.265C56.5125 164.678 56.4751 163.747 56.9893 163.118L57.1 162.996L60.3095 159.786C60.9362 159.159 61.9524 159.159 62.5791 159.786C63.2058 160.412 63.2058 161.43 62.5791 162.055L59.3697 165.265Z" fill="#FF6F3D"/>
<path d="M50.6792 169.417L50.801 169.306C51.4314 168.793 52.3613 168.83 52.9489 169.417C53.5364 170.004 53.5738 170.935 53.0596 171.564L52.9489 171.686L49.7394 174.896C49.1127 175.524 48.0965 175.524 47.4698 174.896C46.8431 174.27 46.8431 173.253 47.4698 172.627L50.6792 169.417Z" fill="#FF6F3D"/>
<path d="M303.311 150.158L303.422 150.28C303.935 150.911 303.898 151.84 303.311 152.427C302.724 153.015 301.793 153.052 301.164 152.538L301.042 152.427L297.832 149.217C297.204 148.592 297.204 147.576 297.832 146.948C298.458 146.322 299.475 146.322 300.101 146.948L303.311 150.158Z" fill="#FF6F3D"/>
<path d="M307.461 158.848L307.35 158.726C306.837 158.095 306.874 157.166 307.461 156.577C308.048 155.99 308.979 155.953 309.608 156.466L309.73 156.577L312.94 159.787C313.568 160.414 313.568 161.43 312.94 162.056C312.314 162.683 311.297 162.683 310.671 162.056L307.461 158.848Z" fill="#FF6F3D"/>
<path d="M309.73 152.427L309.608 152.538C308.979 153.052 308.048 153.015 307.461 152.427C306.874 151.84 306.837 150.909 307.35 150.28L307.461 150.158L310.671 146.948C311.297 146.321 312.314 146.321 312.94 146.948C313.568 147.574 313.568 148.592 312.94 149.218L309.73 152.427Z" fill="#FF6F3D"/>
<path d="M301.042 156.577L301.164 156.466C301.793 155.953 302.724 155.99 303.311 156.577C303.898 157.164 303.935 158.095 303.422 158.724L303.311 158.846L300.101 162.056C299.475 162.683 298.458 162.683 297.832 162.056C297.204 161.43 297.204 160.413 297.832 159.787L301.042 156.577Z" fill="#FF6F3D"/>
<path d="M236.376 125.614L258.845 148.083H237.981C237.095 148.083 236.376 147.364 236.376 146.478V125.614Z" fill="#AAAAAA"/>
<path d="M156.66 253.002C154.596 245.297 159.168 237.377 166.873 235.313L214.93 222.436C222.635 220.372 230.555 224.944 232.621 232.649C234.685 240.356 230.112 248.276 222.407 250.34L174.351 263.216C166.646 265.281 158.725 260.709 156.66 253.002Z" fill="#F5F5F5"/>
<path d="M231.07 233.064C229.234 226.215 222.195 222.151 215.345 223.986L167.289 236.863C160.439 238.698 156.375 245.738 158.21 252.588C160.046 259.436 167.086 263.501 173.934 261.667L221.991 248.789C228.841 246.955 232.904 239.914 231.07 233.064ZM234.17 232.235C236.464 240.795 231.383 249.596 222.822 251.89L174.766 264.766C166.204 267.061 157.404 261.98 155.109 253.417C152.816 244.857 157.897 236.056 166.459 233.762L214.514 220.887C223.076 218.592 231.875 223.673 234.17 232.235Z" fill="#FF6F3D"/>
<path d="M198.82 236.723C198.59 235.867 197.711 235.358 196.854 235.588L187.553 238.08C186.696 238.31 186.188 239.189 186.417 240.046L188.909 249.347C189.139 250.204 190.02 250.711 190.875 250.481L200.177 247.989C201.033 247.759 201.541 246.88 201.312 246.024L198.82 236.723ZM204.413 245.193C205.099 247.761 203.576 250.401 201.007 251.089L191.707 253.582C189.137 254.27 186.497 252.746 185.809 250.178L183.318 240.876C182.63 238.308 184.153 235.668 186.722 234.98L196.022 232.487C198.592 231.799 201.232 233.323 201.92 235.891L204.413 245.193Z" fill="#FF6F3D"/>
<path d="M217.229 243.42C217 242.565 217.507 241.684 218.364 241.456C219.219 241.226 220.1 241.733 220.33 242.59C220.559 243.446 220.051 244.325 219.195 244.555C218.338 244.784 217.459 244.277 217.229 243.42Z" fill="#AAAAAA"/>
<path d="M218.364 241.456C219.219 241.226 220.1 241.733 220.33 242.59C220.559 243.446 220.051 244.325 219.195 244.555C218.338 244.784 217.459 244.277 217.229 243.42C217 242.565 217.507 241.684 218.364 241.456Z" fill="#FF6F3D"/>
<path d="M172.274 255.466C172.044 254.61 172.553 253.729 173.408 253.5C174.265 253.27 175.145 253.779 175.374 254.634C175.604 255.492 175.095 256.371 174.24 256.6C173.383 256.83 172.503 256.323 172.274 255.466Z" fill="#AAAAAA"/>
<path d="M173.408 253.5C174.265 253.27 175.145 253.779 175.374 254.634C175.604 255.492 175.095 256.371 174.24 256.6C173.383 256.83 172.503 256.323 172.274 255.466C172.044 254.61 172.553 253.729 173.408 253.5Z" fill="#FF6F3D"/>
<path d="M213.906 231.018C213.676 230.161 214.185 229.282 215.041 229.052C215.898 228.823 216.777 229.331 217.007 230.187C217.236 231.044 216.727 231.923 215.872 232.153C215.016 232.382 214.135 231.874 213.906 231.018Z" fill="#AAAAAA"/>
<path d="M215.041 229.052C215.898 228.823 216.777 229.331 217.007 230.187C217.236 231.044 216.727 231.923 215.872 232.153C215.016 232.382 214.135 231.874 213.906 231.018C213.676 230.161 214.185 229.282 215.041 229.052Z" fill="#FF6F3D"/>
<path d="M168.95 243.065C168.72 242.208 169.229 241.328 170.086 241.099C170.941 240.869 171.821 241.376 172.05 242.233C172.28 243.089 171.773 243.97 170.916 244.199C170.06 244.429 169.179 243.92 168.95 243.065Z" fill="#AAAAAA"/>
<path d="M170.086 241.099C170.941 240.869 171.821 241.376 172.05 242.233C172.28 243.089 171.773 243.97 170.916 244.199C170.06 244.429 169.179 243.92 168.95 243.065C168.72 242.208 169.229 241.328 170.086 241.099Z" fill="#FF6F3D"/>
<path d="M221.768 235.558C221.539 234.702 222.048 233.823 222.903 233.593C223.76 233.364 224.64 233.871 224.869 234.728C225.099 235.583 224.59 236.463 223.734 236.692C222.879 236.922 221.998 236.415 221.768 235.558Z" fill="#AAAAAA"/>
<path d="M222.903 233.593C223.76 233.364 224.64 233.871 224.869 234.728C225.099 235.583 224.59 236.463 223.734 236.692C222.879 236.922 221.998 236.415 221.768 235.558C221.539 234.702 222.048 233.823 222.903 233.593Z" fill="#FF6F3D"/>
<path d="M176.812 247.603C176.583 246.746 177.091 245.867 177.948 245.637C178.804 245.408 179.683 245.917 179.913 246.772C180.142 247.629 179.635 248.508 178.778 248.738C177.923 248.967 177.042 248.459 176.812 247.603Z" fill="#AAAAAA"/>
<path d="M177.948 245.637C178.804 245.408 179.683 245.917 179.913 246.772C180.142 247.629 179.635 248.508 178.778 248.738C177.923 248.967 177.042 248.459 176.812 247.603C176.583 246.746 177.091 245.867 177.948 245.637Z" fill="#FF6F3D"/>
<path d="M209.368 238.881C209.138 238.024 209.646 237.144 210.503 236.915C211.358 236.685 212.239 237.194 212.469 238.049C212.698 238.905 212.189 239.786 211.334 240.015C210.477 240.245 209.597 239.736 209.368 238.881Z" fill="#AAAAAA"/>
<path d="M210.503 236.915C211.358 236.685 212.239 237.194 212.469 238.049C212.698 238.905 212.189 239.786 211.334 240.015C210.477 240.245 209.597 239.736 209.368 238.881C209.138 238.024 209.646 237.144 210.503 236.915Z" fill="#FF6F3D"/>
<path d="M164.411 250.926C164.182 250.07 164.691 249.191 165.546 248.961C166.403 248.732 167.282 249.239 167.512 250.096C167.741 250.951 167.233 251.832 166.377 252.062C165.52 252.291 164.641 251.783 164.411 250.926Z" fill="#AAAAAA"/>
<path d="M165.546 248.961C166.403 248.732 167.282 249.239 167.512 250.096C167.741 250.951 167.233 251.832 166.377 252.062C165.52 252.291 164.641 251.783 164.411 250.926C164.182 250.07 164.691 249.191 165.546 248.961Z" fill="#FF6F3D"/>
<defs>
<filter id="filter0_d_1402_31510" x="115.454" y="116.009" width="159.996" height="154.734" filterUnits="userSpaceOnUse" color-interpolation-filters="sRGB">
<feFlood flood-opacity="0" result="BackgroundImageFix"/>
<feColorMatrix in="SourceAlpha" type="matrix" values="0 0 0 0 0 0 0 0 0 0 0 0 0 0 0 0 0 0 127 0" result="hardAlpha"/>
<feOffset dy="7"/>
<feGaussianBlur stdDeviation="7.5"/>
<feColorMatrix type="matrix" values="0 0 0 0 0.333333 0 0 0 0 0.333333 0 0 0 0 0.333333 0 0 0 0.1 0"/>
<feBlend mode="normal" in2="BackgroundImageFix" result="effect1_dropShadow_1402_31510"/>
<feBlend mode="normal" in="SourceGraphic" in2="effect1_dropShadow_1402_31510" result="shape"/>
</filter>
<filter id="filter1_d_1402_31510" x="115.454" y="116.009" width="159.996" height="154.735" filterUnits="userSpaceOnUse" color-interpolation-filters="sRGB">
<feFlood flood-opacity="0" result="BackgroundImageFix"/>
<feColorMatrix in="SourceAlpha" type="matrix" values="0 0 0 0 0 0 0 0 0 0 0 0 0 0 0 0 0 0 127 0" result="hardAlpha"/>
<feOffset dy="7"/>
<feGaussianBlur stdDeviation="7.5"/>
<feColorMatrix type="matrix" values="0 0 0 0 0.333333 0 0 0 0 0.333333 0 0 0 0 0.333333 0 0 0 0.1 0"/>
<feBlend mode="normal" in2="BackgroundImageFix" result="effect1_dropShadow_1402_31510"/>
<feBlend mode="normal" in="SourceGraphic" in2="effect1_dropShadow_1402_31510" result="shape"/>
</filter>
</defs>
</svg>
