<svg width="31" height="29" viewBox="0 0 31 29" fill="none" xmlns="http://www.w3.org/2000/svg">
<path fill-rule="evenodd" clip-rule="evenodd" d="M13.6276 28.377L0.989331 22.4788C-0.0872641 21.9639 -0.0872641 21.1681 0.989331 20.7L5.38933 18.6404L13.5808 22.4788C14.6574 22.9938 16.3893 22.9938 17.4191 22.4788L25.6106 18.6404L30.0106 20.7C31.0872 21.2149 31.0872 22.0107 30.0106 22.4788L17.3723 28.377C16.3893 28.8451 14.6574 28.8451 13.6276 28.377Z" fill="#FF6F3D"/>
<path fill-rule="evenodd" clip-rule="evenodd" d="M13.5867 21.0783L0.986871 15.1733C-0.0864442 14.6578 -0.0864442 13.861 0.986871 13.3924L5.28013 11.3772L13.5867 15.267C14.66 15.7825 16.3866 15.7825 17.4133 15.267L25.7198 11.3772L30.0131 13.3924C31.0864 13.9079 31.0864 14.7046 30.0131 15.1733L17.4133 21.0783C16.34 21.5938 14.6133 21.5938 13.5867 21.0783Z" fill="#95C038"/>
<path fill-rule="evenodd" clip-rule="evenodd" d="M13.5867 13.8553L0.986871 8.0353C-0.0864442 7.5272 -0.0864442 6.74196 0.986871 6.28005L13.5867 0.460022C14.66 -0.0480755 16.3866 -0.0480755 17.4133 0.460022L30.0131 6.28005C31.0864 6.78815 31.0864 7.57339 30.0131 8.0353L17.4133 13.8553C16.34 14.3172 14.6133 14.3172 13.5867 13.8553Z" fill="#5DC0E8"/>
</svg>
