<svg width="191" height="60" viewBox="0 0 191 60" fill="none" xmlns="http://www.w3.org/2000/svg">
<g clip-path="url(#clip0_262_367)">
<path fill-rule="evenodd" clip-rule="evenodd" d="M27.5023 51.9478L7.76123 42.6793C6.07959 41.8702 6.07959 40.6197 7.76123 39.8841L14.634 36.6475L27.4292 42.6793C29.1108 43.4885 31.8161 43.4885 33.4246 42.6793L46.2197 36.6475L53.0925 39.8841C54.7742 40.6932 54.7742 41.9437 53.0925 42.6793L33.3515 51.9478C31.8161 52.6834 29.1108 52.6834 27.5023 51.9478Z" fill="#FF6F3D"/>
<path fill-rule="evenodd" clip-rule="evenodd" d="M27.5023 40.5452L7.76123 31.2767C6.07959 30.4675 6.07959 29.217 7.76123 28.4814L14.4878 25.3184L27.5023 31.4238C29.1839 32.2329 31.8892 32.2329 33.4977 31.4238L46.5122 25.3184L53.2388 28.4814C54.9204 29.2906 54.9204 30.5411 53.2388 31.2767L33.4977 40.5452C31.8161 41.3543 29.1108 41.3543 27.5023 40.5452Z" fill="#95C038"/>
<path fill-rule="evenodd" clip-rule="evenodd" d="M27.5023 29.4391L7.76123 20.1706C6.07959 19.3615 6.07959 18.1109 7.76123 17.3754L27.5023 8.10687C29.1839 7.29771 31.8892 7.29771 33.4977 8.10687L53.2388 17.3754C54.9204 18.1845 54.9204 19.435 53.2388 20.1706L33.4977 29.4391C31.8161 30.1747 29.1108 30.1747 27.5023 29.4391Z" fill="#5DC0E8"/>
</g>
<path d="M69.4393 28.9393C68.8536 29.5251 68.8536 30.4749 69.4393 31.0607L78.9853 40.6066C79.5711 41.1924 80.5208 41.1924 81.1066 40.6066C81.6924 40.0208 81.6924 39.0711 81.1066 38.4853L72.6213 30L81.1066 21.5147C81.6924 20.9289 81.6924 19.9792 81.1066 19.3934C80.5208 18.8076 79.5711 18.8076 78.9853 19.3934L69.4393 28.9393ZM121.561 31.0607C122.146 30.4749 122.146 29.5251 121.561 28.9393L112.015 19.3934C111.429 18.8076 110.479 18.8076 109.893 19.3934C109.308 19.9792 109.308 20.9289 109.893 21.5147L118.379 30L109.893 38.4853C109.308 39.0711 109.308 40.0208 109.893 40.6066C110.479 41.1924 111.429 41.1924 112.015 40.6066L121.561 31.0607ZM70.5 31.5H120.5V28.5H70.5V31.5Z" fill="#ED7309"/>
<path fill-rule="evenodd" clip-rule="evenodd" d="M154.366 6C151.672 6.00199 149.492 8.18792 149.494 10.8815C149.492 13.5751 151.674 15.761 154.368 15.763H159.241V10.8835C159.243 8.18991 157.061 6.00398 154.366 6C154.368 6 154.368 6 154.366 6V6ZM154.366 19.02H141.374C138.68 19.022 136.498 21.208 136.5 23.9015C136.496 26.5951 138.678 28.7811 141.372 28.7851H154.366C157.059 28.7831 159.241 26.5971 159.239 23.9035C159.241 21.208 157.059 19.022 154.366 19.02Z" fill="#36C5F0"/>
<path fill-rule="evenodd" clip-rule="evenodd" d="M185.227 23.9015C185.229 21.208 183.047 19.022 180.353 19.02C177.659 19.022 175.477 21.208 175.479 23.9015V28.7851H180.353C183.047 28.7831 185.229 26.5971 185.227 23.9015ZM172.232 23.9015V10.8815C172.234 8.18991 170.054 6.00398 167.361 6C164.667 6.00199 162.485 8.18792 162.487 10.8815V23.9015C162.483 26.5951 164.665 28.7811 167.359 28.7851C170.052 28.7831 172.234 26.5971 172.232 23.9015Z" fill="#2EB67D"/>
<path fill-rule="evenodd" clip-rule="evenodd" d="M167.36 54.8242C170.053 54.8222 172.235 52.6362 172.233 49.9426C172.235 47.249 170.053 45.0631 167.36 45.0611H162.486V49.9426C162.484 52.6342 164.666 54.8202 167.36 54.8242ZM167.36 41.8021H180.354C183.048 41.8001 185.23 39.6142 185.228 36.9206C185.232 34.227 183.05 32.0411 180.356 32.0371H167.362C164.668 32.0391 162.486 34.225 162.488 36.9186C162.486 39.6142 164.666 41.8001 167.36 41.8021Z" fill="#ECB22E"/>
<path fill-rule="evenodd" clip-rule="evenodd" d="M136.5 36.9206C136.498 39.6142 138.68 41.8001 141.374 41.8021C144.067 41.8001 146.249 39.6142 146.247 36.9206V32.0391H141.374C138.68 32.0411 136.498 34.227 136.5 36.9206ZM149.494 36.9206V49.9406C149.49 52.6342 151.672 54.8201 154.366 54.8241C157.059 54.8221 159.241 52.6362 159.239 49.9426V36.9246C159.243 34.231 157.061 32.045 154.368 32.0411C151.672 32.0411 149.492 34.227 149.494 36.9206C149.494 36.9206 149.494 36.9226 149.494 36.9206Z" fill="#E01E5A"/>
<defs>
<clipPath id="clip0_262_367">
<rect width="48" height="48" fill="white" transform="translate(6.5 6)"/>
</clipPath>
</defs>
</svg>
