<svg width="188" height="60" viewBox="0 0 188 60" fill="none" xmlns="http://www.w3.org/2000/svg">
<g clip-path="url(#clip0_263_443)">
<path fill-rule="evenodd" clip-rule="evenodd" d="M27.5023 51.9478L7.76123 42.6793C6.07959 41.8702 6.07959 40.6197 7.76123 39.8841L14.634 36.6475L27.4292 42.6793C29.1108 43.4885 31.8161 43.4885 33.4246 42.6793L46.2197 36.6475L53.0925 39.8841C54.7742 40.6932 54.7742 41.9437 53.0925 42.6793L33.3515 51.9478C31.8161 52.6834 29.1108 52.6834 27.5023 51.9478Z" fill="#FF6F3D"/>
<path fill-rule="evenodd" clip-rule="evenodd" d="M27.5023 40.5452L7.76123 31.2767C6.07959 30.4675 6.07959 29.217 7.76123 28.4814L14.4878 25.3184L27.5023 31.4238C29.1839 32.2329 31.8892 32.2329 33.4977 31.4238L46.5122 25.3184L53.2388 28.4814C54.9204 29.2906 54.9204 30.5411 53.2388 31.2767L33.4977 40.5452C31.8161 41.3543 29.1108 41.3543 27.5023 40.5452Z" fill="#95C038"/>
<path fill-rule="evenodd" clip-rule="evenodd" d="M27.5023 29.4391L7.76123 20.1706C6.07959 19.3615 6.07959 18.1109 7.76123 17.3754L27.5023 8.10687C29.1839 7.29771 31.8892 7.29771 33.4977 8.10687L53.2388 17.3754C54.9204 18.1845 54.9204 19.435 53.2388 20.1706L33.4977 29.4391C31.8161 30.1747 29.1108 30.1747 27.5023 29.4391Z" fill="#5DC0E8"/>
</g>
<path fill-rule="evenodd" clip-rule="evenodd" d="M95.9583 39.7917C95.9583 40.8732 95.0816 41.75 94 41.75C92.9184 41.75 92.0417 40.8732 92.0417 39.7917V31.9583H84.2083C83.1268 31.9583 82.25 31.0816 82.25 30C82.25 28.9184 83.1268 28.0417 84.2083 28.0417H92.0417V20.2083C92.0417 19.1268 92.9184 18.25 94 18.25C95.0816 18.25 95.9583 19.1268 95.9583 20.2083V28.0417H103.792C104.873 28.0417 105.75 28.9184 105.75 30C105.75 31.0816 104.873 31.9583 103.792 31.9583H95.9583V39.7917Z" fill="#444444"/>
<path fill-rule="evenodd" clip-rule="evenodd" d="M151.366 6C148.672 6.00199 146.492 8.18792 146.494 10.8815C146.492 13.5751 148.674 15.761 151.368 15.763H156.241V10.8835C156.243 8.18991 154.061 6.00398 151.366 6C151.368 6 151.368 6 151.366 6V6ZM151.366 19.02H138.374C135.68 19.022 133.498 21.208 133.5 23.9015C133.496 26.5951 135.678 28.7811 138.372 28.7851H151.366C154.059 28.7831 156.241 26.5971 156.239 23.9035C156.241 21.208 154.059 19.022 151.366 19.02Z" fill="#36C5F0"/>
<path fill-rule="evenodd" clip-rule="evenodd" d="M182.227 23.9015C182.229 21.208 180.047 19.022 177.353 19.02C174.659 19.022 172.477 21.208 172.479 23.9015V28.7851H177.353C180.047 28.7831 182.229 26.5971 182.227 23.9015ZM169.232 23.9015V10.8815C169.234 8.18991 167.054 6.00398 164.361 6C161.667 6.00199 159.485 8.18792 159.487 10.8815V23.9015C159.483 26.5951 161.665 28.7811 164.359 28.7851C167.052 28.7831 169.234 26.5971 169.232 23.9015Z" fill="#2EB67D"/>
<path fill-rule="evenodd" clip-rule="evenodd" d="M164.36 54.8242C167.053 54.8222 169.235 52.6362 169.233 49.9426C169.235 47.249 167.053 45.0631 164.36 45.0611H159.486V49.9426C159.484 52.6342 161.666 54.8202 164.36 54.8242ZM164.36 41.8021H177.354C180.048 41.8001 182.23 39.6142 182.228 36.9206C182.232 34.227 180.05 32.0411 177.356 32.0371H164.362C161.668 32.0391 159.486 34.225 159.488 36.9186C159.486 39.6142 161.666 41.8001 164.36 41.8021Z" fill="#ECB22E"/>
<path fill-rule="evenodd" clip-rule="evenodd" d="M133.5 36.9206C133.498 39.6142 135.68 41.8001 138.374 41.8021C141.067 41.8001 143.249 39.6142 143.247 36.9206V32.0391H138.374C135.68 32.0411 133.498 34.227 133.5 36.9206ZM146.494 36.9206V49.9406C146.49 52.6342 148.672 54.8201 151.366 54.8241C154.059 54.8221 156.241 52.6362 156.239 49.9426V36.9246C156.243 34.231 154.061 32.045 151.368 32.0411C148.672 32.0411 146.492 34.227 146.494 36.9206C146.494 36.9206 146.494 36.9226 146.494 36.9206Z" fill="#E01E5A"/>
<defs>
<clipPath id="clip0_263_443">
<rect width="48" height="48" fill="white" transform="translate(6.5 6)"/>
</clipPath>
</defs>
</svg>
