<svg width="31" height="30" viewBox="0 0 31 30" fill="none" xmlns="http://www.w3.org/2000/svg">
<path fill-rule="evenodd" clip-rule="evenodd" d="M12.4329 3C11.0861 3.001 9.99614 4.09396 9.99714 5.44076C9.99614 6.78755 11.0871 7.88052 12.4339 7.88152H14.8707V5.44175C14.8717 4.09496 13.7807 3.00199 12.4329 3C12.4339 3 12.4339 3 12.4329 3V3ZM12.4329 9.51001H5.93684C4.59004 9.51101 3.49907 10.604 3.50006 11.9508C3.49807 13.2976 4.58905 14.3905 5.93584 14.3925H12.4329C13.7797 14.3915 14.8707 13.2986 14.8697 11.9518C14.8707 10.604 13.7797 9.51101 12.4329 9.51001Z" fill="#36C5F0"/>
<path fill-rule="evenodd" clip-rule="evenodd" d="M27.8632 11.9508C27.8642 10.604 26.7732 9.51101 25.4264 9.51001C24.0797 9.51101 22.9887 10.604 22.9897 11.9508V14.3925H25.4264C26.7732 14.3915 27.8642 13.2986 27.8632 11.9508ZM21.3662 11.9508V5.44076C21.3671 4.09496 20.2772 3.00199 18.9304 3C17.5836 3.001 16.4926 4.09396 16.4936 5.44076V11.9508C16.4916 13.2976 17.5826 14.3905 18.9294 14.3925C20.2762 14.3915 21.3671 13.2986 21.3662 11.9508Z" fill="#2EB67D"/>
<path fill-rule="evenodd" clip-rule="evenodd" d="M18.93 27.4121C20.2768 27.4111 21.3678 26.3181 21.3668 24.9713C21.3678 23.6245 20.2768 22.5316 18.93 22.5306H16.4932V24.9713C16.4922 26.3171 17.5832 27.4101 18.93 27.4121ZM18.93 20.9011H25.4271C26.7739 20.9001 27.8649 19.8071 27.8639 18.4603C27.8658 17.1135 26.7749 16.0205 25.4281 16.0186H18.931C17.5842 16.0196 16.4932 17.1125 16.4942 18.4593C16.4932 19.8071 17.5832 20.9001 18.93 20.9011Z" fill="#ECB22E"/>
<path fill-rule="evenodd" clip-rule="evenodd" d="M3.50006 18.4603C3.49907 19.8071 4.59004 20.9001 5.93684 20.901C7.28363 20.9001 8.37461 19.8071 8.37361 18.4603V16.0195H5.93684C4.59004 16.0205 3.49907 17.1135 3.50006 18.4603ZM9.99714 18.4603V24.9703C9.99515 26.3171 11.0861 27.4101 12.4329 27.4121C13.7797 27.4111 14.8707 26.3181 14.8697 24.9713V18.4623C14.8717 17.1155 13.7807 16.0225 12.4339 16.0205C11.0861 16.0205 9.99614 17.1135 9.99714 18.4603C9.99714 18.4603 9.99714 18.4613 9.99714 18.4603Z" fill="#E01E5A"/>
</svg>
