<svg width="360" height="360" viewBox="0 0 360 360" fill="none" xmlns="http://www.w3.org/2000/svg">
<path d="M134 147.4H211.586L227 162.814V272.4C227 272.952 226.552 273.4 226 273.4H134C133.447 273.4 133 272.952 133 272.4V148.4C133 147.848 133.447 147.4 134 147.4Z" fill="white" stroke="#AAAAAA" stroke-width="2"/>
<rect x="180" y="221.6" width="38.4" height="3.2" rx="1" fill="#CCCCCC"/>
<rect x="141.6" y="212" width="33.6" height="3.2" rx="1" fill="#FF6F3D"/>
<rect x="180" y="231.2" width="38.4" height="3.2" rx="1" fill="#CCCCCC"/>
<rect x="180" y="240.8" width="38.4" height="3.2" rx="1" fill="#CCCCCC"/>
<rect x="141.6" y="250.4" width="76.8" height="3.2" rx="1" fill="#CCCCCC"/>
<rect x="141.6" y="260" width="76.8" height="3.2" rx="1" fill="#FF6F3D"/>
<path d="M152.8 232.8L143.2 244H175.2L164 229.6L157.6 237.6L152.8 232.8Z" fill="#FF6F3D"/>
<circle cx="149.6" cy="224.8" r="3.2" fill="#FF6F3D"/>
<path d="M133.6 202.4C132.587 209.245 127.529 219.02 119.185 220.366C113.938 221.212 110.11 219.672 108.572 218.642" stroke="#AAAAAA" stroke-width="2" stroke-linecap="round"/>
<path d="M100.915 218.721C101.325 219.523 102.489 220.609 104.074 220.761C106.194 220.965 107.48 219.695 108.57 218.643" stroke="#AAAAAA" stroke-width="2" stroke-linecap="round"/>
<path d="M227.297 206.473C234.212 206.702 244.736 203.477 247.555 195.509C249.327 190.499 248.498 186.458 247.761 184.759" stroke="#AAAAAA" stroke-width="2" stroke-linecap="round"/>
<path d="M250.95 178.4C251.519 179.099 252.042 180.602 251.542 182.114C250.873 184.136 249.192 184.799 247.789 185.372" stroke="#AAAAAA" stroke-width="2" stroke-linecap="round"/>
<path d="M170.4 181.6C170.4 178.949 167.893 176.8 164.8 176.8C161.707 176.8 159.2 178.949 159.2 181.6" stroke="#AAAAAA" stroke-width="2" stroke-linecap="round"/>
<path d="M200.8 181.6C200.8 178.949 198.293 176.8 195.2 176.8C192.107 176.8 189.6 178.949 189.6 181.6" stroke="#AAAAAA" stroke-width="2" stroke-linecap="round"/>
<path d="M170.989 197.34C172.965 201.364 176.264 204 180 204C183.736 204 187.035 201.364 189.011 197.34C189.321 196.708 188.84 196 188.136 196H171.864C171.16 196 170.678 196.708 170.989 197.34Z" fill="#AAAAAA"/>
<path d="M210.4 148L226.4 164H211.4C210.847 164 210.4 163.552 210.4 163V148Z" fill="#AAAAAA"/>
<rect x="38.6" y="136.2" width="58.8" height="58.8" rx="29.4" fill="white"/>
<rect x="38.6" y="136.2" width="58.8" height="58.8" rx="29.4" stroke="#9ADAF3" stroke-width="2"/>
<path d="M52.0001 186.8C52.0001 181.277 56.4773 176.8 62.0001 176.8H74.0001C79.523 176.8 84.0001 181.277 84.0001 186.8V188.058C84.0001 189.318 83.2128 190.444 82.0293 190.876L73.489 193.995C69.9442 195.29 66.056 195.29 62.5113 193.995L53.971 190.876C52.7874 190.444 52.0001 189.318 52.0001 188.058V186.8Z" fill="#9ADAF3"/>
<ellipse cx="68.0001" cy="160.8" rx="9.6" ry="9.6" fill="#9ADAF3"/>
<circle cx="93.6" cy="140" r="16" fill="#FF6F3D"/>
<rect x="92" y="132" width="3.2" height="16" rx="1" fill="white"/>
<rect x="85.6" y="141.6" width="3.2" height="16" rx="1" transform="rotate(-90 85.6 141.6)" fill="white"/>
<path d="M270.221 241.139L292.009 249.069L301.511 244.638L312.725 213.829C312.914 213.31 312.646 212.736 312.127 212.547L284.313 202.424C283.794 202.235 283.22 202.502 283.031 203.021L269.624 239.857C269.435 240.376 269.702 240.95 270.221 241.139Z" fill="white" stroke="#9ADAF3" stroke-width="2"/>
<path d="M290.553 249.603L302.857 243.866L293.836 240.582L290.553 249.603Z" fill="#9ADAF3"/>
<path d="M131.754 99.2883C131.673 99.8254 131.049 100.083 130.613 99.7592L121.82 93.2289C121.371 92.8956 121.458 92.1999 121.974 91.9865L132.392 87.6849C132.909 87.4715 133.461 87.9035 133.378 88.4564L131.754 99.2883Z" fill="#95C03D"/>
<path d="M320.554 152.088C320.473 152.625 319.849 152.883 319.413 152.559L310.62 146.029C310.171 145.696 310.258 145 310.774 144.787L321.192 140.485C321.708 140.272 322.26 140.704 322.178 141.256L320.554 152.088Z" fill="#5FC1E8"/>
<path d="M180.087 117.84C180.278 118.348 179.859 118.877 179.32 118.806L168.46 117.388C167.905 117.315 167.642 116.666 167.989 116.227L174.991 107.396C175.338 106.957 176.031 107.066 176.228 107.589L180.087 117.84Z" fill="#5FC1E8"/>
<path d="M283.687 96.0704C283.602 96.6067 282.976 96.8582 282.543 96.5303L273.813 89.9156C273.367 89.5779 273.46 88.8832 273.979 88.6747L284.437 84.4736C284.956 84.2652 285.504 84.7025 285.416 85.2547L283.687 96.0704Z" fill="#F36700"/>
<path d="M236 133.6L252 191.2" stroke="#9ADAF3" stroke-width="2" stroke-linecap="round"/>
<path d="M237.6 138.626L262.328 132L260.257 142.493L267.297 150.546L242.569 157.172L237.6 138.626Z" fill="#D9F4FF" stroke="#9ADAF3" stroke-width="2" stroke-linejoin="round"/>
</svg>
