<svg width="136" height="24" viewBox="0 0 136 24" fill="none" xmlns="http://www.w3.org/2000/svg">
<path fill-rule="evenodd" clip-rule="evenodd" d="M15.411 23.7059L4.68526 18.7649C3.77158 18.3335 3.77158 17.6669 4.68526 17.2747L8.4194 15.5493L15.3713 18.7649C16.285 19.1962 17.7548 19.1962 18.6287 18.7649L25.5806 15.5493L29.3147 17.2747C30.2284 17.7061 30.2284 18.3727 29.3147 18.7649L18.589 23.7059C17.7548 24.098 16.285 24.098 15.411 23.7059Z" fill="#FF6F3D"/>
<path fill-rule="evenodd" clip-rule="evenodd" d="M15.3762 17.5916L4.68317 12.6448C3.77228 12.213 3.77228 11.5456 4.68317 11.153L8.32673 9.46478L15.3762 12.7234C16.2871 13.1552 17.7525 13.1552 18.6238 12.7234L25.6733 9.46478L29.3168 11.153C30.2277 11.5848 30.2277 12.2522 29.3168 12.6448L18.6238 17.5916C17.7129 18.0234 16.2475 18.0234 15.3762 17.5916Z" fill="#95C038"/>
<path fill-rule="evenodd" clip-rule="evenodd" d="M15.3762 11.5408L4.68317 6.6652C3.77228 6.23956 3.77228 5.58174 4.68317 5.19479L15.3762 0.319233C16.2871 -0.106411 17.7525 -0.106411 18.6238 0.319233L29.3168 5.19479C30.2277 5.62044 30.2277 6.27825 29.3168 6.6652L18.6238 11.5408C17.7129 11.9277 16.2475 11.9277 15.3762 11.5408Z" fill="#5DC0E8"/>
<path fill-rule="evenodd" clip-rule="evenodd" d="M36.2354 12C36.2354 7.64845 39.202 5.8667 42.2211 5.8667C45.2401 5.8667 48.2068 7.64845 48.2068 12C48.2068 16.3516 45.2401 18.1334 42.2211 18.1334C39.202 18.1334 36.2354 16.3516 36.2354 12ZM45.5891 12C45.5891 7.93969 43.146 7.57992 42.2211 7.57992C41.2962 7.57992 38.853 7.93969 38.853 12C38.853 16.0604 41.2962 16.4201 42.2211 16.4201C43.146 16.4201 45.5891 16.0604 45.5891 12ZM52.6982 17.9963H50.2201V6.00376H53.4311L57.6543 13.5591L58.3 15.1866H58.3523L58.3 13.0622V6.00376H60.778V17.9963H57.567L53.3089 10.1497L52.6982 8.81344H52.6458L52.6982 10.9378V17.9963ZM63.2232 17.9963H70.5527V15.9747H65.7013V6.00376H63.2232V17.9963ZM72.9609 13.0965L68.4585 6.00376H71.3205L73.8335 10.2183L74.2174 11.0406H74.2698L74.6886 10.2183L77.219 6.00376H79.8367L75.439 13.1308V17.9963H72.9609V13.0965ZM85.6103 5.8667C82.5912 5.8667 79.6245 7.64845 79.6245 12C79.6245 16.3516 82.5912 18.1334 85.6103 18.1334C88.6293 18.1334 91.596 16.3516 91.596 12C91.596 7.64845 88.6293 5.8667 85.6103 5.8667ZM85.6103 7.57992C86.5352 7.57992 88.9783 7.93969 88.9783 12C88.9783 16.0604 86.5352 16.4201 85.6103 16.4201C84.6853 16.4201 82.2422 16.0604 82.2422 12C82.2422 7.93969 84.6853 7.57992 85.6103 7.57992ZM96.0873 17.9963H93.6093V6.00376H100.45V8.02536H96.0873V10.9378H100.241V12.908H96.0873V17.9963ZM102.198 17.9963H104.677V12.908H108.83V10.9378H104.677V8.02536H109.039V6.00376H102.198V17.9963ZM113.266 17.9963H110.788V6.00376H113.266V17.9963ZM124.63 15.5807C124.02 15.8548 123.164 16.1118 122.083 16.1118C119.884 16.1118 117.894 14.9296 117.894 12.0343C117.894 9.58439 119.517 7.8883 122.257 7.8883C123.182 7.8883 123.967 8.05962 124.683 8.33374L124.787 6.27787C123.863 5.98662 123.042 5.8667 122.083 5.8667C118.243 5.8667 115.277 7.93969 115.277 12.0686C115.277 16.4373 118.592 18.1334 121.629 18.1334C122.606 18.1334 123.705 17.9792 124.787 17.6194L124.63 15.5807ZM134 17.9963H126.705V6.00376H134V8.12815H129.183V10.835H133.563V12.8052H129.183V15.8719H134V17.9963Z" fill="white"/>
</svg>
